<?xml version="1.0" encoding="UTF-8" standalone="no"?>
<svg
   width="91"
   height="48"
   viewBox="0 0 91 48"
   fill="none"
   version="1.1"
   id="svg10"
   sodipodi:docname="a61b0f89-9cb6-4fa9-b17e-57d9deec84f8.svg"
   xmlns:inkscape="http://www.inkscape.org/namespaces/inkscape"
   xmlns:sodipodi="http://sodipodi.sourceforge.net/DTD/sodipodi-0.dtd"
   xmlns="http://www.w3.org/2000/svg"
   xmlns:svg="http://www.w3.org/2000/svg">
  <defs
     id="defs10" />
  <sodipodi:namedview
     id="namedview10"
     pagecolor="#ffffff"
     bordercolor="#000000"
     borderopacity="0.25"
     inkscape:showpageshadow="2"
     inkscape:pageopacity="0.0"
     inkscape:pagecheckerboard="0"
     inkscape:deskcolor="#d1d1d1" />
  <path
     d="M7.41339 14.9289C11.5077 14.9289 14.8268 11.587 14.8268 7.46447C14.8268 3.34196 11.5077 0 7.41339 0C3.31909 0 0 3.34196 0 7.46447C0 11.587 3.31909 14.9289 7.41339 14.9289Z"
     fill="#FB2929"
     id="path1" />
  <path
     d="M14.5861 14.9349L0.588317 26.2438C0.219876 26.54 0 27.0426 0 27.5782V47.4166C0 47.65 0.175307 47.8624 0.442723 47.9521C0.531862 47.982 0.626944 47.997 0.719054 47.997C0.906246 47.997 1.0875 47.9402 1.22715 47.8295L14.6158 37.1369C14.7525 37.0262 14.8298 36.8796 14.8298 36.724V15.3657C14.8298 15.1922 14.8535 14.896 14.5861 14.9319V14.9349Z"
     fill="#006BDC"
     id="path2" />
  <path
     d="M36.7906 22.4592C38.0207 22.4592 38.9923 22.7195 39.8213 23.0935L39.8778 23.0636V14.9499H43.3364V36.9334H39.9075V36.1286L39.8511 36.0987C38.9091 36.7599 37.6226 37.2506 36.1072 37.2506C32.4198 37.2506 29.3624 34.4592 29.3624 30.1152C29.3624 25.7711 32.4763 22.4592 36.7936 22.4592H36.7906ZM36.8203 34.3156C37.991 34.3156 39.0488 33.8848 39.8778 33.3373V26.1421C39.0785 25.7382 38.0772 25.4241 37.0194 25.4241C34.3898 25.4241 32.8477 27.4106 32.8477 29.9417C32.8477 32.4727 34.3066 34.3156 36.8203 34.3156Z"
     fill="#006BDC"
     id="path3" />
  <path
     d="M48.5956 30.8033C49.0235 33.1638 50.8835 34.3725 53.2546 34.3725C55.0255 34.3725 56.6835 33.7113 58.0562 32.733V35.9282C56.7429 36.7629 54.7402 37.2506 52.9129 37.2506C48.3965 37.2506 45.0805 34.3156 45.0805 29.8848C45.0805 25.454 48.4233 22.4592 52.2533 22.4592C55.7416 22.4592 58.8258 24.8467 58.8258 29.3942C58.8258 29.8549 58.7961 30.4293 58.7396 30.8033H48.5926H48.5956ZM48.5956 28.3859H55.5989C55.3404 26.2558 53.7983 25.2775 52.2265 25.2775C50.6547 25.2775 49.0264 26.2558 48.5956 28.3859Z"
     fill="#006BDC"
     id="path4" />
  <path
     d="M62.8281 15.8684C61.8 16.8766 61.4554 18.4592 61.4554 20.359V22.7764H59.3398V25.7412H61.4554V36.9364H64.914V25.7412H68.3428V22.7764H64.914V20.0419C64.914 18.6896 65.2289 17.6544 66.771 17.6544C67.2851 17.6544 68.1705 17.7681 68.7142 17.9147V14.9798C68.0843 14.7494 67.2553 14.6358 66.4561 14.6358C65.1695 14.6358 63.77 14.9529 62.8251 15.8743L62.8281 15.8684Z"
     fill="#006BDC"
     id="path5" />
  <path
     d="M72.2323 20.2423C73.4327 20.2423 74.4043 19.264 74.4043 18.0853C74.4043 16.9065 73.4327 15.9282 72.262 15.9282C71.0913 15.9282 70.09 16.9065 70.09 18.0853C70.09 19.264 71.0616 20.2423 72.2323 20.2423Z"
     fill="#FB2929"
     id="path6" />
  <path
     d="M73.9764 22.7764H70.5178V36.9334H73.9764V22.7764Z"
     fill="#006BDC"
     id="path7" />
  <path
     d="M25.2947 20.2423C26.4951 20.2423 27.4667 19.264 27.4667 18.0853C27.4667 16.9065 26.4951 15.9282 25.3244 15.9282C24.1537 15.9282 23.1524 16.9065 23.1524 18.0853C23.1524 19.264 24.124 20.2423 25.2947 20.2423Z"
     fill="#006BDC"
     id="path8" />
  <path
     d="M27.0388 22.7764H23.5802V36.9334H27.0388V22.7764Z"
     fill="#006BDC"
     id="path9" />
  <path
     d="M80.3766 29.3942L75.4888 22.7764H79.405L80.5757 24.4458C81.1759 25.3104 81.889 26.3455 82.4892 27.2371H82.5456C83.1459 26.3455 83.8887 25.2805 84.4592 24.4757L85.6596 22.7764H89.4034L84.5721 29.3373L90.1165 36.9334H86.1439L84.2571 34.2558C83.6272 33.3642 83.0003 32.4727 82.4268 31.6081H82.3703C81.7999 32.4727 81.0838 33.4779 80.54 34.2558L78.6532 36.9334H74.8232L80.3677 29.3942H80.3766Z"
     fill="#006BDC"
     id="path10" />
</svg>
